<svg version="1.0" xmlns="http://www.w3.org/2000/svg" width="512.000000pt" height="512.000000pt" viewBox="0 0 512.000000 512.000000" preserveAspectRatio="xMidYMid meet">

<g transform="translate(0.000000,512.000000) scale(0.100000,-0.100000)" fill="#ffffff" stroke="none">
<path d="M3310 3585 c-162 -32 -324 -120 -443 -240 -196 -197 -297 -467 -297 -790 0 -334 108 -608 316 -806 142 -134 306 -207 511 -228 350 -36 659 111 852 405 218 332 235 841 41 1201 -132 245 -341 403 -603 457 -92 19 -284 20 -377 1z m315 -507 c151 -77 237 -267 237 -523 0 -251 -78 -430 -223 -510 -48 -27 -63 -30 -139 -30 -72 0 -92 4 -135 27 -92 48 -165 145 -205 273 -31 98 -39 317 -16 430 34 168 125 300 237 344 74 29 174 25 244 -11z" fill="#ffffff"/>
<path d="M906 3548 c-5 -17 -58 -1000 -54 -1003 2 -2 75 -43 163 -92 l160 -89 80 37 c242 114 495 55 535 -124 36 -157 -73 -274 -265 -285 -138 -7 -293 48 -438 158 -37 28 -72 50 -76 48 -11 -4 -311 -354 -311 -362 0 -11 63 -64 135 -115 201 -140 404 -201 674 -201 462 1 762 220 822 601 44 285 -80 553 -310 669 -108 54 -185 72 -331 77 -144 5 -227 -7 -317 -47 l-44 -19 6 132 c3 73 8 142 11 155 l4 22 450 0 450 0 0 225 0 225 -670 0 c-528 0 -671 -3 -674 -12z" fill="#ffffff"/>
</g>
</svg>